PathFileType	4	(X/Y/Z)	..\data\2014001\dynamic\2014001_C4_04.trc
DataRate	CameraRate	NumFrames	NumMarkers	Units	OrigDataRate	OrigDataStartFrame	OrigNumFrames
100.000000	100.000000	4	52	mm	100.000000	135	155
Frame#	Time	L_IAS			L_IPS			R_IPS			R_IAS			L_FTC			L_FLE			L_FME			L_FAX			L_TTC			L_FAL			L_TAM			L_FCC			L_FM1			L_FM2			L_FM5			R_FTC			R_FLE			R_FME			R_FAX			R_TTC			R_FAL			R_TAM			R_FCC			R_FM1			R_FM2			R_FM5			CV7			TV10			SXS			SJN			L_SIA			L_SRS			L_SAA			L_SAE			L_HLE			L_HME			L_UOA			L_RSP			L_UHE			L_HM2			L_HM5			R_SIA			R_SRS			R_SAA			R_SAE			R_HLE			R_HME			R_UOA			R_RSP			R_UHE			R_HM2			R_HM5			
		X1	Y1	Z1	X2	Y2	Z2	X3	Y3	Z3	X4	Y4	Z4	X5	Y5	Z5	X6	Y6	Z6	X7	Y7	Z7	X8	Y8	Z8	X9	Y9	Z9	X10	Y10	Z10	X11	Y11	Z11	X12	Y12	Z12	X13	Y13	Z13	X14	Y14	Z14	X15	Y15	Z15	X16	Y16	Z16	X17	Y17	Z17	X18	Y18	Z18	X19	Y19	Z19	X20	Y20	Z20	X21	Y21	Z21	X22	Y22	Z22	X23	Y23	Z23	X24	Y24	Z24	X25	Y25	Z25	X26	Y26	Z26	X27	Y27	Z27	X28	Y28	Z28	X29	Y29	Z29	X30	Y30	Z30	X31	Y31	Z31	X32	Y32	Z32	X33	Y33	Z33	X34	Y34	Z34	X35	Y35	Z35	X36	Y36	Z36	X37	Y37	Z37	X38	Y38	Z38	X39	Y39	Z39	X40	Y40	Z40	X41	Y41	Z41	X42	Y42	Z42	X43	Y43	Z43	X44	Y44	Z44	X45	Y45	Z45	X46	Y46	Z46	X47	Y47	Z47	X48	Y48	Z48	X49	Y49	Z49	X50	Y50	Z50	X51	Y51	Z51	X52	Y52	Z52	

136	1.35	1739.696044921875	885.6766357421877	-394.9624328613282	1564.696044921875	919.3836669921877	-319.7423706054688	1565.215942382813	916.5616455078127	-230.4448699951172	1742.11865234375	883.7354736328127	-156.0738525390625	1673.943725585938	797.5958251953127	-454.9542541503907	1803.689453125	464.481414794922	-440.1382446289064	1841.0537109375	456.0278320312501	-327.0440368652344	1781.365844726563	405.7334289550782	-442.2759704589845	1848.43115234375	381.3911132812501	-405.5475463867189	1731.036010742188	89.29962158203126	-402.4335327148439	1768.050537109375	95.87229919433595	-320.5964050292969	1692.966918945313	51.24446868896486	-351.0613708496094	1870.77001953125	44.40871047973634	-355.5008239746094	1864.94140625	53.30488967895509	-412.8183593750001	1814.774780273438	38.1718978881836	-444.0598449707032	1643.263305664063	790.038269042969	-101.712516784668	1612.126586914063	441.3494873046876	-151.5574645996094	1626.566772460938	431.8687744140626	-269.9206542968751	1584.325805664063	376.8716735839844	-152.000473022461	1648.623779296875	365.6461486816407	-200.8878631591797	1513.324096679688	74.73203277587892	-212.750473022461	1557.40380859375	88.21718597412111	-295.7560424804688	1472.866333007813	37.06163787841798	-273.7064208984376	1659.290771484375	24.04870605468751	-272.2696838378907	1660.708374023438	35.14839553833009	-207.9376373291016	1595.326416015625	25.15771865844727	-168.1244201660157	1584.757568359375	1382.076171875	-263.8714294433594	1533.741333007813	1145.8173828125	-264.8327026367188	1770.051391601563	1168.227661132813	-286.5881042480469	1715.916015625	1328.11767578125	-278.7929687500001	1524.042358398438	1188.225708007813	-357.9028320312501	1538.48486328125	1318.782470703125	-351.1650085449219	1604.75244140625	1322.07275390625	-463.5855102539064	1645.467529296875	1334.877685546875	-453.3557434082032	1612.6650390625	1055.507568359375	-539.8506469726564	1584.01220703125	1021.540649414063	-467.2241516113282	1577.716674804688	1024.12890625	-516.1803588867189	1690.010986328125	818.505065917969	-515.7915649414064	1648.071533203125	823.7547607421877	-585.6336669921876	1710.99169921875	733.0423583984376	-524.0775756835939	1633.390014648438	746.0656127929689	-592.5945434570314	1543.091430664063	1187.088012695313	-145.3303833007813	1554.250854492188	1312.317749023438	-172.3187408447266	1643.318237304688	1317.578857421875	-77.5539016723633	1688.435302734375	1325.233276367188	-95.3076858520508	1709.727416992188	1026.794799804688	-3.876477479934693	1676.581298828125	999.208190917969	-75.43726348876955	1683.050537109375	992.6318969726565	-28.84181785583497	1875.27197265625	870.3144531250002	-51.10437774658205	1833.926879882813	848.5914306640627	15.81295204162598	1939.374389648438	801.9556884765627	-37.78745651245118	1857.063110351563	773.3825683593752	15.76382541656494	
137	1.36	1752.687866210938	882.8540039062502	-394.7028198242189	1577.267822265625	917.0096435546877	-320.6344604492188	1577.486083984375	914.7402954101565	-231.5081634521485	1754.118896484375	881.5145263671877	-155.7516021728516	1686.8623046875	794.6126098632815	-455.0487060546876	1818.72509765625	462.289031982422	-439.2295837402345	1855.871337890625	454.6846008300782	-326.3795166015626	1799.86376953125	402.6017150878907	-441.5847778320314	1868.06884765625	382.3269653320313	-404.6226806640626	1773.33935546875	83.39942169189455	-403.484588623047	1809.422241210938	92.33917236328126	-321.4481201171876	1738.3662109375	42.20221710205079	-352.3753662109376	1915.741455078125	49.1760940551758	-356.2391052246094	1909.5478515625	57.9614601135254	-413.5655517578126	1860.89111328125	39.23289489746094	-445.0173645019532	1653.529663085938	789.1171875000002	-101.7032165527344	1616.370483398438	441.1149902343751	-151.4485321044922	1631.376586914063	430.9886169433595	-269.8476867675782	1587.770874023438	377.0077209472657	-152.11328125	1651.927612304688	364.8163452148438	-200.5876770019532	1513.650634765625	75.38764953613283	-213.2127380371094	1558.348999023438	88.4373245239258	-296.1316528320313	1473.220703125	38.01769638061524	-274.4360656738282	1659.362915039063	24.02584838867188	-272.2375488281251	1660.588989257813	35.05566406250001	-207.9144439697266	1595.073486328125	25.22500801086426	-168.3988647460938	1598.411254882813	1379.947509765625	-264.2973327636719	1546.640625	1143.953857421875	-265.0984497070313	1783.407836914063	1165.6259765625	-286.5393981933594	1729.58251953125	1325.616943359375	-279.1834411621094	1537.183471679688	1185.698974609375	-357.6484985351563	1552.021484375	1316.392944335938	-351.2927551269532	1617.886962890625	1319.171997070313	-463.6931762695314	1658.73388671875	1331.933227539063	-453.824188232422	1622.313110351563	1053.276977539063	-540.5150756835939	1593.709594726563	1019.472900390625	-467.8692626953126	1587.188598632813	1022.485229492188	-516.6066284179689	1695.7939453125	815.0316162109377	-518.9981689453126	1652.956298828125	821.2498779296877	-588.0227661132814	1715.4541015625	729.3999023437501	-528.1144409179689	1637.0361328125	743.8918457031251	-595.3925781250001	1556.374877929688	1185.276123046875	-145.3424377441407	1567.969360351563	1310.5458984375	-172.4500274658203	1657.13037109375	1315.70068359375	-77.81129455566408	1702.173217773438	1323.29345703125	-95.70677185058595	1726.464111328125	1025.773315429688	-2.358477354049683	1693.467407226563	997.2415161132815	-73.52151489257814	1700.552490234375	990.6414794921877	-26.85639381408692	1896.72509765625	875.1670532226565	-51.87410736083986	1856.901489257813	851.4443969726565	15.06502151489258	1963.460327148438	809.4866943359377	-39.73902130126954	1882.815185546875	777.2172851562502	14.0282096862793	
138	1.37	1765.706176757813	879.6815185546877	-394.5883178710939	1589.8701171875	914.3372192382815	-321.5541076660157	1589.885498046875	912.7131347656252	-232.6032257080079	1766.341064453125	879.2143554687502	-155.5897674560547	1699.61474609375	791.1812133789065	-455.106903076172	1833.249877929688	459.6067504882814	-438.3407287597657	1870.11279296875	452.7982788085939	-325.6166687011719	1817.998657226563	399.2378540039064	-440.9285888671876	1887.163330078125	383.0503845214844	-403.6687622070314	1815.320922851563	78.87374877929689	-404.5858764648439	1850.2041015625	90.18990325927736	-322.2963867187501	1783.57275390625	34.75717163085938	-353.7275390625001	1959.606811523438	55.39286422729494	-356.6687011718751	1953.241088867188	63.95565795898439	-414.028045654297	1906.387084960938	41.70543670654298	-445.7642822265626	1664.080444335938	788.0955200195315	-101.6762237548828	1621.079833984375	440.8405151367189	-151.2760925292969	1636.539794921875	430.0484313964845	-269.7892150878907	1591.688842773438	377.1257934570313	-152.125244140625	1655.580688476563	363.9558715820313	-200.2406616210938	1514.022338867188	76.0675735473633	-213.5350189208985	1559.243408203125	88.72618865966798	-296.3807678222657	1473.503051757813	39.12492752075196	-274.9268798828126	1659.357788085938	24.02315902709962	-272.2152404785157	1660.456298828125	34.96586227416993	-207.8816375732422	1594.85107421875	25.27379989624024	-168.598388671875	1612.119140625	1377.583984375	-264.8221740722657	1559.557006835938	1141.8798828125	-265.5067749023438	1796.791259765625	1162.761352539063	-286.5840759277344	1743.279663085938	1322.85693359375	-279.6395874023438	1550.385131835938	1182.98291015625	-357.5963745117188	1565.637573242188	1313.812377929688	-351.5716857910157	1631.1875	1316.078491210938	-463.9366760253907	1672.156127929688	1328.78271484375	-454.3565673828126	1632.2998046875	1050.848388671875	-541.1624755859376	1603.79052734375	1017.2060546875	-468.461883544922	1597.087280273438	1020.633239746094	-516.9619750976564	1701.958129882813	811.459655761719	-522.2796020507814	1658.06689453125	818.6728515625002	-590.3848876953126	1720.203247070313	725.6580810546876	-532.3059082031251	1640.925415039063	741.7048339843751	-598.1833496093751	1569.60986328125	1183.255737304688	-145.5186462402344	1581.711547851563	1308.527221679688	-172.7131042480469	1670.94921875	1313.515502929688	-78.1596145629883	1715.94140625	1321.040893554688	-96.19238281250003	1743.021240234375	1024.467407226563	-1.002575039863587	1710.183349609375	994.9963378906252	-71.7881546020508	1717.8779296875	988.405212402344	-25.04526710510255	1917.677734375	879.8223876953127	-52.7601776123047	1879.382080078125	854.1586914062502	14.18004322052002	1986.866577148438	816.8496704101565	-41.75737762451173	1908.080444335938	781.0486450195315	12.24325180053711	
139	1.38	1778.777465820313	876.2390747070315	-394.6097106933595	1602.52783203125	911.4065551757815	-322.5019226074219	1602.4306640625	910.5081176757815	-233.7294464111329	1778.7890625	876.8641357421877	-155.5714263916016	1712.2646484375	787.399597167969	-455.1545715332032	1847.373657226563	456.540740966797	-437.4857482910157	1883.90185546875	450.4822387695314	-324.7655029296876	1835.782470703125	395.7406311035157	-440.2941284179689	1905.759155273438	383.5780029296876	-402.7086486816407	1856.5068359375	75.68017578125001	-405.6470642089845	1889.98779296875	89.34346771240236	-323.0794677734376	1828.039672851563	28.90601158142091	-355.0076293945313	2001.953125	62.82357788085939	-356.7890319824219	1995.59130859375	71.0569305419922	-414.2011718750001	1950.762084960938	45.39699935913087	-446.2575683593751	1674.95751953125	786.9736938476565	-101.6332244873047	1626.291015625	440.5301818847657	-151.0455017089844	1642.0869140625	429.0621643066407	-269.7383422851563	1596.119018554688	377.2263793945313	-152.0282897949219	1659.616821289063	363.0784912109376	-199.8512725830079	1514.4599609375	76.80263519287111	-213.693832397461	1560.077392578125	89.11685943603517	-296.4856567382813	1473.715576171875	40.42133331298829	-275.1472167968751	1659.295166015625	24.04633522033692	-272.1908264160157	1660.341552734375	34.88871765136719	-207.8276062011719	1594.68310546875	25.31026268005372	-168.7066040039063	1625.881469726563	1375.02734375	-265.4514465332032	1572.511108398438	1139.633422851563	-266.0513305664063	1810.199829101563	1159.685180664063	-286.7337951660157	1757.005737304688	1319.889526367188	-280.1718139648438	1563.644409179688	1180.1357421875	-357.7542724609376	1579.337158203125	1311.090454101563	-352.0054931640626	1644.65576171875	1312.84521484375	-464.3252563476564	1685.730590820313	1325.475463867188	-454.9585876464845	1642.661010742188	1048.251953125	-541.7929077148439	1614.313598632813	1014.764526367188	-468.9971618652345	1607.455810546875	1018.605102539063	-517.2468872070314	1708.519165039063	807.819763183594	-525.6184082031251	1663.4482421875	816.0723266601565	-592.7180175781251	1725.224731445313	721.8383178710939	-536.6135253906251	1645.081787109375	739.5502319335939	-600.9446411132814	1582.830078125	1181.060668945313	-145.8546295166016	1595.478515625	1306.302368164063	-173.1140747070313	1684.778930664063	1311.076904296875	-78.60668945312501	1729.742797851563	1318.531372070313	-96.77290344238284	1759.359619140625	1022.910705566406	0.167223334312439	1726.706176757813	992.5183715820315	-70.27593994140626	1734.96630859375	985.9624633789065	-23.45059585571289	1938.098754882813	884.263366699219	-53.7598114013672	1901.301879882813	856.7247314453127	13.16037082672119	2009.567016601563	824.0130615234377	-43.8021469116211	1932.801147460938	784.8601684570315	10.43418598175049	
